<svg width="19" height="19" viewBox="0 0 19 19" fill="none" xmlns="http://www.w3.org/2000/svg">
<path d="M18.0238 0.155238L0.521351 9.33328C-0.198626 9.71062 -0.169088 10.2637 0.586333 10.5628L2.82085 11.4459C3.57479 11.7443 4.71789 11.5826 5.35886 11.0812L15.0634 3.42873C15.7014 2.92586 15.7701 3.00044 15.2155 3.59414L7.54315 11.8078C6.98711 12.3993 7.15252 13.1244 7.90868 13.4191L8.17009 13.5217C8.92625 13.8141 10.1624 14.3059 10.9149 14.6131L13.3931 15.6218C14.1463 15.9283 14.7621 16.1823 14.7621 16.1867C14.7621 16.1911 14.7666 16.2052 14.7702 16.2059C14.7739 16.2074 14.9519 15.5679 15.1646 14.7837L18.9439 0.895891C19.1566 0.110932 18.7438 -0.221365 18.0238 0.155238Z" fill="#0052B4"/>
<path d="M7.62365 14.3503L5.909 13.6488C5.15727 13.3409 4.79691 13.702 5.10853 14.4529C5.10927 14.4529 6.7006 18.2884 6.6563 18.4235C6.61051 18.5579 8.18338 16.1477 8.18338 16.1477C8.62792 15.4668 8.37538 14.6582 7.62365 14.3503Z" fill="#0052B4"/>
</svg>
