<svg width="145" height="45" viewBox="0 0 145 45" fill="none" xmlns="http://www.w3.org/2000/svg">
<rect width="145" height="45" fill="#0052B4"/>
<path d="M42.186 26H48.3358V24.6776H43.7222V15.8182H42.186V26ZM53.2602 26.1541C54.9257 26.1541 56.104 25.3338 56.442 24.0909L55.0351 23.8374C54.7666 24.5582 54.1203 24.9261 53.2751 24.9261C52.0024 24.9261 51.1473 24.1009 51.1075 22.6293H56.5365V22.1023C56.5365 19.343 54.8859 18.2642 53.1558 18.2642C51.028 18.2642 49.626 19.8849 49.626 22.2315C49.626 24.603 51.0081 26.1541 53.2602 26.1541ZM51.1125 21.5156C51.1721 20.4318 51.9577 19.4922 53.1657 19.4922C54.3192 19.4922 55.0748 20.3473 55.0798 21.5156H51.1125ZM60.4081 26.169C61.6709 26.169 62.3818 25.5277 62.6652 24.956H62.7249V26H64.1766V20.929C64.1766 18.7067 62.4266 18.2642 61.2135 18.2642C59.8314 18.2642 58.5587 18.821 58.0615 20.2131L59.4585 20.5312C59.6773 19.9893 60.2341 19.4673 61.2334 19.4673C62.1929 19.4673 62.6851 19.9695 62.6851 20.8345V20.8693C62.6851 21.4112 62.1283 21.4013 60.7561 21.5604C59.3094 21.7294 57.8279 22.1072 57.8279 23.8423C57.8279 25.3438 58.9564 26.169 60.4081 26.169ZM60.7313 24.9759C59.8911 24.9759 59.2845 24.598 59.2845 23.8622C59.2845 23.0668 59.9905 22.7834 60.8506 22.669C61.3328 22.6044 62.4763 22.4751 62.6901 22.2614V23.2457C62.6901 24.1506 61.9692 24.9759 60.7313 24.9759ZM66.1565 26H67.643V21.3366C67.643 20.3374 68.4136 19.6165 69.4676 19.6165C69.7758 19.6165 70.1238 19.6712 70.2432 19.706V18.2841C70.094 18.2642 69.8007 18.2493 69.6118 18.2493C68.7169 18.2493 67.9513 18.7564 67.6729 19.5767H67.5933V18.3636H66.1565V26ZM73.0161 21.4659C73.0161 20.2479 73.7618 19.5518 74.7959 19.5518C75.8051 19.5518 76.4166 20.2131 76.4166 21.3217V26H77.9031V21.1428C77.9031 19.2536 76.8641 18.2642 75.303 18.2642C74.1546 18.2642 73.4039 18.7962 73.0509 19.6065H72.9564V18.3636H71.5296V26H73.0161V21.4659ZM83.6018 26H85.0883V21.2919C85.0883 20.2628 85.8092 19.5469 86.6544 19.5469C87.4797 19.5469 88.0514 20.0938 88.0514 20.924V26H89.5329V21.1328C89.5329 20.2131 90.0947 19.5469 91.0642 19.5469C91.8497 19.5469 92.496 19.9844 92.496 21.0185V26H93.9825V20.8793C93.9825 19.1342 93.0081 18.2642 91.626 18.2642C90.5273 18.2642 89.702 18.7912 89.3341 19.6065H89.2545C88.9214 18.7713 88.2204 18.2642 87.2013 18.2642C86.192 18.2642 85.4413 18.7663 85.1231 19.6065H85.0287V18.3636H83.6018V26ZM99.1915 26.1541C101.344 26.1541 102.751 24.5781 102.751 22.2166C102.751 19.8402 101.344 18.2642 99.1915 18.2642C97.0388 18.2642 95.6318 19.8402 95.6318 22.2166C95.6318 24.5781 97.0388 26.1541 99.1915 26.1541ZM99.1965 24.9062C97.7895 24.9062 97.1333 23.6783 97.1333 22.2116C97.1333 20.75 97.7895 19.5071 99.1965 19.5071C100.593 19.5071 101.25 20.75 101.25 22.2116C101.25 23.6783 100.593 24.9062 99.1965 24.9062ZM104.41 26H105.897V21.3366C105.897 20.3423 106.668 19.6214 107.697 19.6214C107.985 19.6214 108.209 19.6811 108.388 19.7706L108.865 18.5277C108.611 18.3587 108.283 18.2493 107.866 18.2493C106.961 18.2493 106.205 18.7564 105.927 19.5767H105.847V18.3636H104.41V26ZM113.006 26.1541C114.672 26.1541 115.85 25.3338 116.188 24.0909L114.781 23.8374C114.513 24.5582 113.866 24.9261 113.021 24.9261C111.748 24.9261 110.893 24.1009 110.854 22.6293H116.283V22.1023C116.283 19.343 114.632 18.2642 112.902 18.2642C110.774 18.2642 109.372 19.8849 109.372 22.2315C109.372 24.603 110.754 26.1541 113.006 26.1541ZM110.859 21.5156C110.918 20.4318 111.704 19.4922 112.912 19.4922C114.065 19.4922 114.821 20.3473 114.826 21.5156H110.859Z" fill="white"/>
<path d="M32.4989 18.0333C32.5173 17.7577 32.3088 17.5195 32.0333 17.5011L27.5432 17.2018C27.2677 17.1834 27.0294 17.3919 27.0111 17.6674C26.9927 17.9429 27.2012 18.1812 27.4767 18.1996L31.4678 18.4656L31.2018 22.4568C31.1834 22.7323 31.3919 22.9706 31.6674 22.9889C31.9429 23.0073 32.1812 22.7988 32.1996 22.5233L32.4989 18.0333ZM24.3293 25.3763L32.3293 18.3763L31.6707 17.6237L23.6707 24.6237L24.3293 25.3763Z" fill="white"/>
</svg>
