<svg width="13" height="17" viewBox="0 0 13 17" fill="none" xmlns="http://www.w3.org/2000/svg">
<path d="M6.4 0C3.27111 0 0 2.41778 0 6.4C0 10.1689 5.68889 15.9289 5.90222 16.1422C6.04444 16.2844 6.18667 16.3556 6.4 16.3556C6.61333 16.3556 6.75555 16.2844 6.89778 16.1422C7.11111 15.9289 12.8 10.1689 12.8 6.4C12.8 2.41778 9.52889 0 6.4 0ZM6.4 8.53333C5.19111 8.53333 4.26667 7.60889 4.26667 6.4C4.26667 5.19111 5.19111 4.26667 6.4 4.26667C7.60889 4.26667 8.53333 5.19111 8.53333 6.4C8.53333 7.60889 7.60889 8.53333 6.4 8.53333Z" fill="#0052B4"/>
</svg>
