<svg width="19" height="19" viewBox="0 0 19 19" fill="none" xmlns="http://www.w3.org/2000/svg">
<path d="M9.49984 0C4.25328 0 0 4.25341 0 9.49997C0 14.7464 4.25328 19.0001 9.49984 19.0001C14.7464 19.0001 19 14.7464 19 9.49997C19 4.25328 14.7464 0 9.49984 0ZM9.52879 13.9819V13.9818H9.47077H5.41281C5.41281 11.0142 8.01915 11.0149 8.59752 10.2389L8.6637 9.88504C7.85112 9.47324 7.2775 8.48041 7.2775 7.31924C7.2775 5.78946 8.27261 4.54912 9.49984 4.54912C10.7271 4.54912 11.7222 5.78946 11.7222 7.31924C11.7222 8.47053 11.1588 9.45716 10.357 9.87548L10.4324 10.2776C11.0669 11.0159 13.5866 11.0641 13.5866 13.9819H9.52879Z" fill="#0052B4"/>
</svg>
