<svg width="150" height="38" viewBox="0 0 150 38" fill="none" xmlns="http://www.w3.org/2000/svg">
<path d="M39.0774 29.1561L41.6731 26.2172C42.0013 27.0227 42.5285 27.6593 43.2545 28.1267C43.9805 28.5842 44.796 28.8129 45.7011 28.8129C46.7951 28.8129 47.6603 28.5543 48.2968 28.0372C48.9334 27.52 49.2516 26.8238 49.2516 25.9486C49.2516 24.9143 48.1924 23.8849 46.074 22.8605C45.3878 22.5323 44.8458 22.2638 44.4479 22.055C42.5384 21.0604 41.2156 20.0907 40.4797 19.1459C39.7437 18.1911 39.3757 17.0573 39.3757 15.7445C39.3757 13.9444 40.0868 12.4675 41.509 11.3138C42.9412 10.1502 44.796 9.56836 47.0735 9.56836C48.3963 9.56836 49.5351 9.80208 50.4898 10.2695C51.4545 10.727 52.3049 11.4481 53.0409 12.4327L50.281 15.0732C49.9528 14.4367 49.5152 13.9643 48.9682 13.656C48.4311 13.3377 47.7797 13.1786 47.0139 13.1786C46.0889 13.1786 45.343 13.4123 44.7761 13.8797C44.2092 14.3372 43.9258 14.934 43.9258 15.6699C43.9258 16.8236 45.0496 17.8778 47.2973 18.8326C47.7449 19.0216 48.088 19.1708 48.3267 19.2802C50.1765 20.1255 51.5441 21.0803 52.4292 22.1445C53.3243 23.2086 53.7718 24.422 53.7718 25.7845C53.7718 27.8333 53.0707 29.4693 51.6684 30.6926C50.276 31.906 48.4013 32.5127 46.0442 32.5127C44.3733 32.5127 42.9412 32.2242 41.7477 31.6474C40.5543 31.0706 39.6641 30.2401 39.0774 29.1561Z" fill="black"/>
<path d="M64.5404 31.9308V21.9654L57.141 10.0905H62.616L65.8532 16.0727C66.0124 16.3711 66.1765 16.749 66.3456 17.2065C66.5146 17.664 66.6887 18.1911 66.8677 18.7879C67.0069 18.2806 67.1611 17.8032 67.3302 17.3557C67.5092 16.9081 67.7081 16.4705 67.9269 16.0429L71.1343 10.0905H76.5795L69.2099 21.9654V31.9308H64.5404Z" fill="black"/>
<path d="M102.281 21.0554C102.281 22.6169 101.988 24.0938 101.401 25.4862C100.824 26.8785 99.9888 28.1018 98.8948 29.1561C97.761 30.2401 96.483 31.0706 95.0608 31.6474C93.6386 32.2242 92.1667 32.5127 90.645 32.5127C89.3123 32.5127 88.0045 32.2889 86.7215 31.8413C85.4485 31.3838 84.2799 30.7324 83.2157 29.887C81.8432 28.793 80.789 27.4852 80.053 25.9635C79.327 24.4419 78.964 22.8058 78.964 21.0554C78.964 19.484 79.2524 18.0121 79.8293 16.6396C80.4061 15.2572 81.2515 14.0289 82.3654 12.9548C83.4594 11.8906 84.7274 11.0652 86.1695 10.4784C87.6216 9.89159 89.1134 9.5982 90.645 9.5982C92.1667 9.5982 93.6436 9.89159 95.0757 10.4784C96.5178 11.0652 97.7908 11.8906 98.8948 12.9548C99.9988 14.0289 100.839 15.2572 101.416 16.6396C101.993 18.022 102.281 19.494 102.281 21.0554ZM90.645 28.3505C92.6242 28.3505 94.2552 27.6593 95.5382 26.2768C96.8311 24.8845 97.4776 23.144 97.4776 21.0554C97.4776 18.9868 96.8261 17.2463 95.5233 15.834C94.2204 14.4218 92.5943 13.7156 90.645 13.7156C88.6658 13.7156 87.0248 14.4218 85.722 15.834C84.4191 17.2364 83.7677 18.9768 83.7677 21.0554C83.7677 23.1639 84.4092 24.9093 85.6921 26.2917C86.9751 27.6642 88.6261 28.3505 90.645 28.3505Z" fill="black"/>
<path d="M119.45 23.6214L117.003 16.565C116.934 16.3562 116.844 15.9981 116.735 15.4909C116.625 14.9837 116.511 14.3621 116.392 13.6261C116.262 14.3323 116.138 14.9688 116.019 15.5357C115.899 16.0926 115.81 16.4656 115.75 16.6545L113.393 23.6214H119.45ZM105.546 31.9308L113.855 10.0905H119.196L127.625 31.9308H122.314L120.539 27.2913H112.08L110.558 31.9308H105.546Z" fill="black"/>
<path d="M132.367 31.9308V10.0905H137.036V19.9813L144.316 10.0905H149.717L141.899 20.041L150 31.9308H144.376L137.036 20.5035V31.9308H132.367Z" fill="black"/>
<mask id="mask0" mask-type="alpha" maskUnits="userSpaceOnUse" x="0" y="0" width="23" height="38">
<path d="M0 26.3151C0 20.0264 11.3867 0 11.3867 0C11.3867 0 22.7733 20.0264 22.7733 26.3151C22.7733 32.6038 17.6755 37.7019 11.3867 37.7019C5.09781 37.7019 0 32.6037 0 26.3151Z" fill="#F1904C"/>
</mask>
<g mask="url(#mask0)">
<path d="M0.000344276 26.3151C0.000344276 20.0264 11.387 0 11.387 0C11.387 0 21.5107 14.7389 21.5107 21.0276L2.27548 33.0926C-4.01337 33.0926 0.000344276 32.6036 0.000344276 26.3151Z" fill="#FF7616"/>
<path d="M-1.05371 36.8722L28.6088 18.3369L40.2212 36.9207L10.5587 55.456L-1.05371 36.8722Z" fill="black"/>
</g>
</svg>

